General
      Complete name : The.Killing.Fields.1984.BRRip.H264.AAC.5.1ch.Gopo.mp4
      Format : MPEG-4
      Format profile : Base Media
      Codec ID : isom
      File size : 2.22 GiB
      Duration : 2h 21mn
      Overall bit rate : 2 245 Kbps
      Encoded date : UTC 2009-12-20 15:32:05
      Tagged date : UTC 2009-12-20 15:32:05
      Writing application : Yamb 2.1.0.0 [http://yamb.unite-video.com]
   Video #1
      ID : 1
      Format : AVC
      Format/Info : Advanced Video Codec
      Format profile : High@L4.1
      Format settings, CABAC : Yes
      Format settings, ReFrames : 5 frames
      Codec ID : avc1
      Codec ID/Info : Advanced Video Coding
      Duration : 2h 21mn
      Bit rate mode : Variable
      Bit rate : 1 907 Kbps
      Maximum bit rate : 8 316 Kbps
      Width : 1 280 pixels
      Height : 720 pixels
      Display aspect ratio : 16:9
      Frame rate mode : Constant
      Frame rate : 23.976 fps
      Resolution : 24 bits
      Colorimetry : 4:2:0
      Scan type : Progressive
      Bits/(Pixel*Frame) : 0.086
      Stream size : 1.89 GiB (85%)
      Writing library : x264 core 79 r1360 528c100
      Encoding settings : cabac=1 / ref=5 / deblock=1:0:0 / analyse=0x3:0x113 / me=umh / subme=8 / psy=1 / psy_rd=1.0:0.0 / mixed_ref=1 / me_range=16 / chroma_me=1 / trellis=2 / 8x8dct=1 / cqm=0 / deadzone=21,11 / chroma_qp_offset=-2 / threads=3 / nr=0 / decimate=1 / mbaff=0 / constrained_intra=0 / bframes=3 / b_pyramid=0 / b_adapt=2 / b_bias=0 / direct=3 / wpredb=1 / wpredp=2 / keyint=250 / keyint_min=25 / scenecut=40 / rc_lookahead=30 / rc=2pass / mbtree=1 / bitrate=1907 / ratetol=1.0 / qcomp=0.50 / qpmin=10 / qpmax=51 / qpstep=4 / cplxblur=20.0 / qblur=0.5 / vbv_maxrate=24000 / vbv_bufsize=24000 / ip_ratio=1.10 / aq=1:1.00
      Encoded date : UTC 2009-12-19 15:04:47
      Tagged date : UTC 2009-12-20 15:39:00
   Audio #2
      ID : 2
      Format : AAC
      Format/Info : Advanced Audio Codec
      Format version : Version 4
      Format profile : LC
      Format settings, SBR : No
      Codec ID : 40
      Duration : 2h 21mn
      Bit rate mode : Variable
      Bit rate : 334 Kbps
      Maximum bit rate : 428 Kbps
      Channel(s) : 6 channels
      Channel positions : Front: L C R, Rear: L R, LFE
      Sampling rate : 48.0 KHz
      Resolution : 16 bits
      Stream size : 339 MiB (15%)
      Encoded date : UTC 2009-12-20 15:36:33
      Tagged date : UTC 2009-12-20 15:39:00
	Sample : YES
	Subtitle : English,Romanian

PLOT

Sydney Schanberg is a New York Times journalist covering the civil war in Cambodia. Together with local representative Dith Pran, they cover some of the tragedy and madness of the war. When the American forces leave, Dith Pran sends his family with them, but stays behind himself to help Schanberg cover the event. As an American, Schanberg won't have any trouble leaving the country, but the situation is different for Pran; he's a local, and the Khmer Rouge are moving in.
Director: Roland Joffé
CASTING 
     
      Sam Waterston	... 	Sydney Schanberg
	Haing S. Ngor	... 	Dith Pran (as Dr. Haing S Ngor)
	John Malkovich	... 	Alan 'Al' Rockoff
	Julian Sands	... 	John Swain
	Craig T. Nelson	... 	Major Reeves
	Spalding Gray	... 	U.S. Consul
	Bill Paterson	... 	Dr. MacEntire
	Athol Fugard	... 	Dr. Sundesval
	Graham Kennedy	... 	Dougal
	Katherine Krapum Chey	... 	Ser Moeum
	Oliver Pierpaoli	... 	Titony
	Edward Entero Chey	... 	Sarun
	Tom Bird	... 	U.S. Military Advisor
	Monirak Sisowath	... 	Phat - Khmer Rouge Leader
	Lambool Dtangpaibool	... 	Phat's Son

SOURCE: The.Killing.Fields.1984.720p.Bluray.x264-CYBERMEN.mkv

Notes: For best performance I suggest you to use KMPlayer(find it with google) for playback
I haven't tested the movies on a PS3 or Xbox or other devices than PC because I don't own one of them but feel free to test them if you have the oportunity.
